<svg xmlns="http://www.w3.org/2000/svg" width="360" height="720"><path fill="#fff" d="M359.37 594h.63v126l-.961-.001zm-3.181-.03c.527.008 1.055.015 1.583.02l-1.168 125.994c-.806-.007-1.611-.017-2.416-.03zm-3.168-.072c.527.016 1.054.03 1.582.041l-2.837 125.968c-.805-.018-1.611-.039-2.416-.062zm-3.18-.113l1.58.061-4.515 125.93a363.61 363.61 0 01-2.416-.095zm-3.142-.155l1.578.083-6.181 125.848c-.806-.04-1.611-.082-2.416-.127zm-3.153-.197c.525.036 1.05.071 1.576.104l-7.857 125.755c-.806-.05-1.611-.104-2.416-.16zm-3.163-.24c.524.043 1.049.085 1.573.125l-9.544 125.648c-.805-.061-1.61-.125-2.413-.192zm-3.15-.282l1.572.146-11.228 125.509c-.805-.072-1.609-.147-2.412-.224zm-3.135-.323l1.568.167-12.908 125.337a360.75 360.75 0 01-2.41-.256zm-3.136-.367l1.566.188-14.606 125.152a322.96 322.96 0 01-2.409-.29zm-3.15-.408c.52.072 1.04.141 1.56.21l-16.275 124.952c-.8-.104-1.6-.211-2.4-.32zm-3.107-.449l1.559.23-17.965 124.723c-.8-.115-1.6-.233-2.399-.354zm-3.093-.49c.518.086 1.036.17 1.555.251l-19.65 124.47c-.798-.126-1.597-.254-2.395-.386zm-3.12-.533l1.55.271-21.323 124.183a359.08 359.08 0 01-2.389-.419zm-3.095-.575l1.546.292-23.001 123.873c-.795-.147-1.59-.297-2.383-.45zm-3.102-.62c.513.107 1.027.211 1.541.314l-24.683 123.558c-.793-.158-1.586-.32-2.378-.483zm-3.065-.655l1.538.334L284.42 712.04a385.27 385.27 0 01-2.372-.516zm-3.071-.7c.51.12 1.02.238 1.531.354l-28.018 122.846c-.788-.18-1.576-.363-2.363-.548zm-3.055-.74l1.527.375-29.68 122.454c-.787-.19-1.572-.384-2.357-.58zm-3.061-.787c.506.134 1.013.266 1.52.396l-31.347 122.048c-.783-.2-1.565-.405-2.347-.61zm-3.045-.826c.505.14 1.01.28 1.516.417l-33.005 121.6c-.78-.212-1.56-.426-2.34-.643zm-3.037-.866l1.51.437-34.644 121.141c-.778-.222-1.555-.448-2.332-.675zm-3.01-.906c.5.154 1 .307 1.502.458l-36.286 120.649c-.774-.233-1.548-.469-2.32-.707zm-2.994-.945l1.496.478-37.918 120.166c-.77-.243-1.54-.489-2.31-.738zm-2.988-.99c.497.167.995.334 1.493.498l-39.559 119.63c-.77-.255-1.538-.512-2.305-.772zm-2.948-1.024l1.484.519-41.182 119.083a365.15 365.15 0 01-2.292-.8zm-2.971-1.069l1.475.538-42.788 118.513c-.76-.275-1.519-.551-2.277-.831zm-2.943-1.108c.49.189.98.375 1.471.56l-44.39 117.922a391.05 391.05 0 01-2.27-.864zm-2.935-1.154l1.463.58-46.003 117.305c-.754-.296-1.506-.594-2.258-.894zm-2.914-1.185c.484.202.97.402 1.455.6l-47.576 116.672a357.84 357.84 0 01-2.245-.924zm-2.906-1.23c.48.207.962.413 1.444.617l-49.159 116.014c-.744-.315-1.486-.632-2.228-.952zm-2.886-1.27l1.44.64-50.727 115.337c-.741-.326-1.482-.655-2.221-.986zm-2.866-1.307c.475.22.951.44 1.428.657L210.74 687.68a358.53 358.53 0 01-2.201-1.014zm-2.845-1.345l1.423.679-53.832 113.921c-.732-.346-1.464-.694-2.194-1.046zm-2.825-1.382l1.41.696-55.367 113.183c-.726-.355-1.451-.712-2.175-1.072zm-2.803-1.418c.466.24.933.478 1.4.715l-56.89 112.425c-.72-.365-1.44-.732-2.159-1.102zm-2.802-1.466c.464.247.929.492 1.395.736l-58.41 111.644c-.717-.376-1.433-.753-2.148-1.133zm-2.77-1.503l1.38.753-59.928 110.84c-.71-.383-1.419-.77-2.126-1.158zm-2.748-1.528l1.375.774-61.399 110.028c-.707-.395-1.413-.792-2.118-1.192zm-2.745-1.575l1.362.791-62.871 109.188c-.701-.404-1.4-.81-2.098-1.218zm-2.703-1.611c.451.272.903.542 1.355.81l-64.348 108.33c-.696-.413-1.391-.829-2.084-1.247zm-2.698-1.647c.447.278.895.555 1.344.83l-65.792 107.453c-.691-.423-1.38-.849-2.068-1.276zm-2.656-1.682l1.333.847-67.243 106.557a337.26 337.26 0 01-2.05-1.302zm-2.64-1.716c.438.289.877.577 1.317.863l-68.67 105.642c-.677-.44-1.353-.882-2.027-1.327zm-2.626-1.764c.435.295.872.59 1.31.883l-70.102 104.695c-.672-.45-1.344-.903-2.013-1.358zm-2.602-1.787c.43.3.86.6 1.292.898L155.936 656.61a360.84 360.84 0 01-1.986-1.379zm-2.567-1.82l1.28.915-72.877 102.786c-.657-.466-1.313-.935-1.967-1.405zm-2.525-1.84l1.275.936-74.234 101.81c-.654-.477-1.307-.957-1.958-1.438zm-2.516-1.888l1.26.952-75.59 100.807c-.647-.485-1.292-.972-1.936-1.461zm-2.49-1.92l1.244.967-76.933 99.786c-.639-.493-1.276-.987-1.91-1.484zm-2.464-1.952c.41.33.822.658 1.234.985l-78.257 98.75a360.534 360.534 0 01-1.896-1.512zm-2.464-2l1.224 1.004-79.568 97.701a361.433 361.433 0 01-1.878-1.54zm-2.39-2.017l1.204 1.015-80.887 96.628a361.578 361.578 0 01-1.848-1.558zm-2.41-2.063c.397.345.794.689 1.192 1.031l-82.167 95.523a362.15 362.15 0 01-1.828-1.583zm-1.193-1.048l-83.442 94.41-1.806-1.606 84.071-93.851c.391.35.783.699 1.177 1.047zm-2.358-2.112l-84.702 93.282-1.782-1.63 85.323-92.714c.386.355.773.709 1.161 1.062zm-3.475-3.22l1.153 1.083-85.942 92.14a361.819 361.819 0 01-1.77-1.661zm-2.278-2.173l1.136 1.095-87.154 90.986a361.585 361.585 0 01-1.743-1.68zm-2.245-2.219l1.118 1.107-88.378 89.808a343.613 343.613 0 01-1.715-1.7zm-2.225-2.249c.368.377.737.752 1.107 1.126l-89.573 88.616a361.52 361.52 0 01-1.697-1.727zm-2.194-2.278l1.094 1.144-90.75 87.408a361.249 361.249 0 01-1.68-1.755zm-2.174-2.308l1.074 1.153-91.908 86.19a362.39 362.39 0 01-1.648-1.769zm-2.113-2.337l1.06 1.17-93.074 84.94a362.195 362.195 0 01-1.628-1.794zm-2.111-2.365l1.046 1.186-94.196 83.684a361.606 361.606 0 01-1.605-1.819zm-2.066-2.377l1.031 1.2-95.292 82.433c-.53-.613-1.057-1.227-1.583-1.843zm-2.028-2.421c.338.406.676.81 1.016 1.215l-96.4 81.135c-.522-.62-1.042-1.242-1.56-1.865zm-2.005-2.449c.332.41.665.82.999 1.228l-97.482 79.833a361.64 361.64 0 01-1.534-1.886zm-1.959-2.459l.982 1.241-98.54 78.524a361.269 361.269 0 01-1.507-1.906zm-1.94-2.502l.964 1.253-99.587 77.2c-.496-.64-.99-1.282-1.481-1.925zm-1.906-2.53l.946 1.265-100.619 75.85a466.3 466.3 0 01-1.453-1.94zm-1.86-2.537c.308.426.617.85.927 1.274L69.483 572.637c-.477-.651-.952-1.303-1.425-1.957zm-1.839-2.58l.908 1.283-102.622 73.108c-.467-.656-.932-1.314-1.395-1.973zm-1.792-2.588l.896 1.303-103.59 71.729c-.461-.666-.92-1.334-1.377-2.003zm-1.757-2.613c.29.438.582.875.875 1.31L61.123 560.747c-.45-.67-.899-1.342-1.345-2.015zm-1.733-2.637l.854 1.317-105.472 68.918-1.313-2.026zm-1.69-2.68c.279.446.56.892.841 1.336L55.808 552.6c-.434-.684-.865-1.368-1.294-2.055zm-1.643-2.685l.82 1.341-107.314 66.044c-.423-.686-.843-1.374-1.26-2.063zm-1.617-2.708l.805 1.358-108.193 64.604a337.33 337.33 0 01-1.238-2.09zm-1.59-2.712l.782 1.361L48.271 540.17c-.404-.697-.805-1.396-1.204-2.096zm-1.535-2.754c.254.46.51.919.767 1.377L45.869 535.944c-.396-.705-.79-1.412-1.18-2.12zm-1.499-2.776c.249.465.5.93.751 1.393L43.521 531.703c-.388-.713-.773-1.428-1.156-2.145zm-1.471-2.778l.727 1.393-111.509 58.677c-.376-.714-.75-1.43-1.12-2.147zm-1.426-2.8c.236.47.472.939.71 1.407L39.013 523.134a293.57 293.57 0 01-1.095-2.17zm-1.378-2.801l.693 1.421-113.043 55.663c-.359-.73-.715-1.46-1.069-2.191zm-.683-1.422L34.74 514.465l-1.031-2.189 114.15-53.354c.222.474.445.947.67 1.42zm-1.973-4.282l.652 1.432-114.52 52.57c-.337-.735-.672-1.471-1.005-2.209zm-1.286-2.883c.21.483.42.964.634 1.445L30.69 505.635a366.27 366.27 0 01-.977-2.227zm-1.228-2.902c.203.486.408.971.615 1.456L28.753 501.176c-.319-.747-.635-1.496-.949-2.245zm-1.21-2.922l.59 1.451-116.558 47.857a291.13 291.13 0 01-.91-2.239zm-1.153-2.92c.188.488.379.975.57 1.46L25.056 492.17c-.297-.75-.59-1.502-.882-2.254zm-1.115-2.94c.182.492.366.982.552 1.471L23.305 487.65c-.287-.756-.571-1.512-.853-2.27zm-1.076-2.957l.532 1.48-118.406 43.081c-.276-.76-.55-1.521-.822-2.283zm-1.038-2.976l.513 1.488-118.98 41.469c-.267-.765-.53-1.531-.792-2.298zm-1.008-2.994l.493 1.496L18.41 473.907a357.54 357.54 0 01-.76-2.31zm-.941-2.99l.473 1.503L16.91 469.29a311.81 311.81 0 01-.73-2.32zm-.913-3.008l.453 1.51-120.57 36.59a298.99 298.99 0 01-.7-2.332zm-.863-3.025c.142.507.286 1.012.432 1.518L14.09 460.018c-.225-.78-.448-1.56-.668-2.342zm-.854-3.041l.412 1.523-121.51 33.297c-.215-.783-.427-1.566-.636-2.35zm-.777-3.036l.39 1.527-121.96 31.64c-.204-.785-.405-1.57-.603-2.357zm-.754-3.075l.37 1.534-122.38 29.99c-.194-.787-.384-1.576-.572-2.366zm-.692-3.046l.349 1.536-122.784 28.32c-.183-.79-.362-1.58-.539-2.37zm-.673-3.062c.107.514.217 1.028.328 1.54L8.156 436.494c-.171-.792-.34-1.584-.506-2.376zm-.628-3.1c.1.516.203 1.03.307 1.545L7.156 431.727a358.81 358.81 0 01-.473-2.381zm-.582-3.092c.094.516.189 1.031.286 1.546L6.226 426.953c-.15-.794-.297-1.588-.44-2.383zm-.542-3.107c.087.517.175 1.033.265 1.548L5.358 422.176c-.138-.794-.274-1.59-.407-2.385zm-.51-3.122l.243 1.549L4.554 417.359c-.128-.795-.253-1.59-.375-2.386zm-.447-3.114l.222 1.549L3.818 412.555c-.116-.794-.23-1.59-.341-2.384zm-.425-3.129l.203 1.572L3.15 407.783c-.107-.805-.21-1.61-.312-2.416zm-.362-3.12c.059.525.12 1.049.182 1.572L2.546 402.986c-.096-.805-.19-1.61-.28-2.415zm-.33-3.132l.16 1.57L2.004 398.169c-.085-.803-.167-1.607-.246-2.412zm-.28-3.147l.139 1.568-125.48 11.537c-.074-.802-.145-1.604-.214-2.407zm-.249-3.16l.118 1.567-125.624 9.856c-.063-.801-.123-1.603-.18-2.404zm-.215-3.151l.098 1.587L.77 383.684c-.053-.81-.103-1.622-.15-2.433zm-.162-3.14l.077 1.585L.487 378.87c-.042-.808-.08-1.617-.117-2.426zm-.112-3.177c.017.529.035 1.057.055 1.585L.268 374.015c-.031-.807-.06-1.614-.085-2.422zm-.09-3.165c.01.526.022 1.052.035 1.578L.115 369.16c-.02-.803-.038-1.606-.053-2.41zm-.027-3.155c.003.525.007 1.05.014 1.574L.025 364.339c-.01-.8-.016-1.6-.02-2.4zm-.006-3.186a240.29 240.29 0 00-.007 1.585l-126-.173c.001-.805.005-1.61.011-2.415zm.047-3.181l-.029 1.579L.04 354.648c.011-.804.026-1.608.043-2.411zm.088-3.15l-.05 1.584-125.95-3.514c.022-.807.047-1.614.075-2.42zm.13-3.157l-.07 1.579L.306 345.002c.034-.806.07-1.611.108-2.416zm.171-3.17c-.032.525-.062 1.05-.09 1.576L.538 340.16c.044-.805.09-1.61.14-2.414zm.224-3.139c-.04.525-.077 1.05-.112 1.575L.834 335.337c.054-.806.112-1.61.172-2.415zm.237-3.166l-.134 1.571L1.195 330.49c.065-.804.134-1.608.204-2.411zm.308-3.136a208.38 208.38 0 00-.154 1.57L1.62 325.663c.077-.804.156-1.608.237-2.411zm.342-3.162l-.176 1.566L2.113 320.812c.087-.803.177-1.605.27-2.407zm.37-3.108l-.196 1.564L2.666 316.018c.098-.802.198-1.604.302-2.405zm.434-3.125c-.074.52-.146 1.04-.217 1.561L3.286 311.207c.109-.802.22-1.602.334-2.403zm.479-3.134c-.081.519-.16 1.038-.238 1.558L3.975 306.378c.12-.8.242-1.6.367-2.398zm.496-3.087l-.26 1.554-124.351-20.32c.13-.799.263-1.597.399-2.395zm.54-3.114l-.28 1.55L5.537 296.814c.141-.796.285-1.592.432-2.387zm.59-3.089c-.101.515-.202 1.03-.3 1.546L6.415 292.047c.152-.795.307-1.59.465-2.383zm.647-3.096l-.322 1.539L7.364 287.263c.163-.792.328-1.584.496-2.374zm.686-3.08c-.116.511-.23 1.023-.343 1.536L8.375 282.508c.173-.792.35-1.582.529-2.372zm.707-3.066l-.363 1.53-122.69-28.69c.183-.787.37-1.573.56-2.359zm.766-3.048l-.384 1.524-122.3-30.348c.195-.785.392-1.57.592-2.352zm.792-3.064c-.136.506-.271 1.013-.405 1.52l-121.866-32c.206-.783.414-1.566.625-2.347zm.836-3.007l-.424 1.513L13.05 263.666c.216-.78.435-1.558.656-2.336zm.882-3.03l-.446 1.508-120.954-35.29a387.1 387.1 0 01.688-2.329zm.928-3.026c-.157.5-.313 1.001-.467 1.502L15.78 254.315c.237-.774.477-1.547.72-2.32zm.96-2.967l-.486 1.494-119.949-38.586c.248-.77.498-1.54.75-2.308zm1.007-3c-.17.496-.34.992-.507 1.489L18.754 245.066c.259-.767.52-1.533.783-2.298zm1.046-2.972c-.177.494-.353.988-.527 1.482L20.337 240.468c.27-.763.54-1.526.814-2.288zm1.085-2.954c-.185.492-.367.984-.548 1.476L21.98 235.9c.28-.76.561-1.52.846-2.278zm1.123-2.935c-.19.488-.38.976-.566 1.465L23.685 231.352c.289-.755.58-1.508.874-2.261zm1.162-2.916l-.588 1.46-117.056-46.624c.3-.752.601-1.502.906-2.252zm1.208-2.917c-.204.483-.406.966-.607 1.45L27.28 222.329c.31-.747.621-1.494.936-2.239zm1.246-2.898l-.627 1.444-115.745-49.79c.32-.743.642-1.486.967-2.227zm1.276-2.858l-.646 1.433L31.11 213.422c.33-.738.661-1.475.996-2.21zm1.322-2.868l-.666 1.425L33.12 209.002c.339-.733.68-1.466 1.025-2.197zm1.369-2.847l-.687 1.42-113.628-54.45c.35-.73.703-1.46 1.058-2.188zm1.406-2.816c-.236.467-.47.936-.703 1.406l-112.89-55.982c.358-.723.72-1.445 1.083-2.166zm1.424-2.786c-.243.467-.485.934-.725 1.402L39.5 195.913c.37-.72.742-1.44 1.116-2.159zm1.48-2.803l-.742 1.388L41.753 191.59c.379-.714.76-1.427 1.143-2.138zm1.517-2.751c-.255.458-.51.918-.761 1.378L44.044 187.337c.388-.709.779-1.416 1.172-2.123zm1.543-2.749c-.261.455-.52.91-.779 1.367L46.408 183.087c.398-.703.797-1.404 1.199-2.104zm1.59-2.726l-.8 1.36L48.824 178.88c.407-.699.817-1.396 1.23-2.093zm1.635-2.703c-.275.45-.547.9-.819 1.35L51.295 174.708c.417-.694.837-1.387 1.26-2.078zm1.66-2.68l-.836 1.34-107.108-66.377c.427-.689.856-1.376 1.287-2.061zm1.686-2.645c-.286.441-.57.884-.853 1.327L56.404 166.464c.435-.682.873-1.362 1.313-2.041zm1.731-2.642a234.7 234.7 0 00-.87 1.313L59.042 162.394c.443-.674.889-1.346 1.337-2.017zm1.778-2.615c-.298.433-.594.868-.889 1.303L61.744 158.345a352.5 352.5 0 011.366-2.003zm1.8-2.592l-.907 1.292L64.482 154.36c.462-.663.927-1.325 1.394-1.986zm1.833-2.557l-.924 1.28L67.273 150.41c.471-.657.945-1.312 1.42-1.966zm1.854-2.504l-.94 1.266-101.411-74.788c.48-.65.96-1.298 1.444-1.945zm1.9-2.516l-.955 1.25-100.4-76.128c.486-.642.975-1.283 1.466-1.922zm1.934-2.48l-.975 1.242-99.376-77.462a361.5 361.5 0 011.496-1.907zm1.965-2.453l-.987 1.224-98.331-78.785c.503-.628 1.009-1.255 1.516-1.88zm2.012-2.444c-.336.403-.672.808-1.005 1.213L81.99 131.272c.512-.623 1.027-1.243 1.544-1.862zm1.022-1.215L85.1 127.545l1.57-1.843 95.633 82.04c-.343.399-.684.799-1.023 1.2zm3.094-3.562l-1.039 1.187-95.095-82.682c.53-.609 1.06-1.216 1.594-1.822zm2.098-2.37l-1.054 1.173-93.967-83.942c.537-.601 1.076-1.2 1.618-1.798zm2.14-2.33l-1.07 1.156-92.831-85.195c.545-.594 1.091-1.185 1.64-1.775zm2.17-2.292c-.365.381-.728.764-1.09 1.148l-91.683-86.44a347.6 347.6 0 011.671-1.762zm2.19-2.283l-1.102 1.13-90.504-87.653c.561-.58 1.125-1.158 1.69-1.734zm2.24-2.252l-1.113 1.112-89.328-88.852c.567-.57 1.137-1.14 1.708-1.706zm2.262-2.203l-1.132 1.1-88.131-90.05a460.69 460.69 0 011.736-1.688zm2.284-2.167l-1.15 1.088-86.935-91.214c.586-.559 1.174-1.115 1.764-1.67zm2.31-2.152c-.388.355-.774.71-1.159 1.067l-85.69-92.375c.59-.547 1.182-1.093 1.776-1.637zm2.347-2.12l-1.174 1.053-84.444-93.515 1.801-1.616zm2.377-2.089l-1.19 1.039-83.182-94.64c.606-.533 1.215-1.065 1.825-1.594zm2.404-2.057l-1.204 1.023-81.905-95.747c.615-.526 1.23-1.05 1.849-1.57zm1.198-1.004l-80.62-96.831 1.87-1.546 79.968 97.37c-.407.335-.813.67-1.218 1.007zm3.677-3c-.411.33-.822.66-1.23.991L133.53 80.146c.628-.51 1.258-1.016 1.89-1.521zm2.487-1.959c-.416.323-.83.648-1.244.973l-77.987-98.964c.635-.5 1.272-.999 1.91-1.495zm2.496-1.923c-.42.317-.838.636-1.255.955l-76.657-99.989c.641-.49 1.284-.98 1.928-1.467zm2.53-1.883l-1.266.937L145.027 71.21a348.68 348.68 0 011.944-1.44zm2.557-1.837l-1.276.919-73.941-102.033c.652-.473 1.305-.943 1.96-1.41zm2.59-1.835l-1.295.907-72.562-103.009c.662-.466 1.326-.93 1.99-1.392zm2.599-1.788l-1.304.886L156.854 62.76c.667-.457 1.335-.91 2.005-1.362zm2.622-1.734c-.438.287-.875.576-1.311.866L160.874 60.047c.67-.446 1.343-.89 2.016-1.331zm2.675-1.72l-1.33.852L164.943 57.38c.68-.44 1.363-.876 2.046-1.31zm1.325-.834L169.042 54.773l2.054-1.278 66.193 107.222a234 234 0 00-1.336.831zm4.03-2.469l-1.353.817L173.16 52.23c.692-.422 1.386-.84 2.081-1.257zm2.689-1.602l-1.357.795-64.01-108.525c.695-.41 1.391-.817 2.089-1.222zm2.75-1.567c-.459.258-.916.518-1.373.78l-62.55-109.378a359.33 359.33 0 012.113-1.2zm2.752-1.53l-1.375.756L185.748 44.92c.704-.39 1.41-.779 2.118-1.164zm2.795-1.485l-1.39.74-59.566-111.04a314.71 314.71 0 012.142-1.14zm2.798-1.457c-.47.24-.938.481-1.406.724L194.284 40.34c.72-.374 1.442-.746 2.165-1.115zm2.788-1.4l-1.405.7-56.569-112.593c.72-.362 1.442-.721 2.165-1.078zm2.82-1.374l-1.419.683L202.921 36c.728-.353 1.456-.704 2.186-1.052zm2.85-1.336c-.478.22-.955.441-1.431.665l-53.5-114.079c.735-.344 1.47-.686 2.207-1.025zm2.87-1.3l-1.444.648-51.95-114.792c.741-.335 1.483-.668 2.226-.998zm2.89-1.26l-1.44.622-50.38-115.49c.739-.322 1.479-.642 2.22-.96zm2.88-1.215l-1.45.604L220.604 28c.745-.313 1.49-.624 2.238-.932zm2.929-1.184c-.488.193-.975.388-1.461.585L225.109 26.142c.75-.303 1.502-.604 2.254-.903zm2.938-1.128l-1.471.566-45.65-117.45a392.75 392.75 0 012.271-.874zm2.967-1.118c-.494.181-.987.363-1.48.547L234.177 22.618c.76-.284 1.523-.565 2.286-.844zm2.934-1.053c-.497.174-.993.35-1.489.528L238.708 20.962a357.84 357.84 0 012.299-.814zm2.994-1.021l-1.482.501-40.819-119.205c.762-.26 1.524-.518 2.287-.774zm3-.973c-.496.16-.992.32-1.488.482l-39.191-119.76c.765-.25 1.531-.498 2.298-.744zm2.998-.946c-.5.152-.998.306-1.496.462l-37.565-120.27c.77-.24 1.54-.478 2.31-.713zm3.014-.897c-.501.146-1.002.293-1.502.442l-35.928-120.77c.772-.23 1.545-.456 2.319-.68zm3.032-.857l-1.509.42L261.88 13.552c.776-.22 1.552-.436 2.329-.65zm3.048-.817l-1.514.4-32.628-121.702a321.37 321.37 0 012.336-.618zm3.033-.772l-1.519.38-30.967-122.133c.78-.198 1.561-.394 2.343-.586zm3.068-.742l-1.523.359L275.98 9.872c.783-.187 1.566-.372 2.35-.554zm3.053-.677c-.51.11-1.018.224-1.527.338L280.684 8.78c.785-.177 1.57-.35 2.356-.522zm3.08-.642c-.517.106-1.033.213-1.549.322l-25.988-123.3a357.69 357.69 0 012.39-.495zm3.093-.616l-1.552.3L290.167 6.78c.797-.156 1.595-.31 2.393-.462zm3.089-.576c-.519.09-1.037.184-1.554.278L294.94 5.875c.797-.146 1.596-.29 2.395-.43zm3.133-.516c-.52.084-1.038.17-1.557.257L299.734 5.032c.8-.135 1.599-.267 2.4-.396zm3.086-.49a194.3 194.3 0 00-1.557.235L304.516 4.258c.798-.123 1.597-.244 2.397-.363zm3.12-.431c-.52.07-1.04.141-1.558.214L309.317 3.548c.799-.113 1.597-.223 2.397-.33zm3.143-.4c-.52.063-1.04.128-1.558.194L314.139 2.9c.798-.102 1.597-.201 2.396-.298zm3.125-.365l-1.558.172L318.944 2.32c.798-.09 1.596-.179 2.394-.264zm3.139-.305c-.527.05-1.053.1-1.579.153L323.735 1.81c.807-.081 1.615-.16 2.424-.235zm3.142-.263c-.525.042-1.05.086-1.576.132l-10.87-125.54c.805-.07 1.61-.137 2.417-.201zm3.186-.241l-1.577.11L333.435.968c.805-.059 1.611-.115 2.417-.168zm3.146-.189l-1.573.089L338.275.647c.802-.048 1.605-.093 2.409-.136zm3.145-.146c-.524.021-1.047.044-1.57.068L343.095.391c.8-.037 1.6-.071 2.401-.103zm3.168-.104l-1.592.047L347.894.201c.811-.027 1.622-.052 2.434-.073zm3.17-.063c-.53.007-1.06.016-1.589.026L352.744.072c.808-.016 1.617-.03 2.426-.04zM360 126c-.528 0-1.055.002-1.582.005L357.59.008C358.393.003 359.196 0 360 0z" opacity=".26"/></svg>